%TF.GenerationSoftware,KiCad,Pcbnew,8.0.7*%
%TF.CreationDate,2025-05-19T16:35:52+02:00*%
%TF.ProjectId,nils-tmc5160,6e696c73-2d74-46d6-9335-3136302e6b69,rev?*%
%TF.SameCoordinates,Original*%
%TF.FileFunction,Legend,Top*%
%TF.FilePolarity,Positive*%
%FSLAX46Y46*%
G04 Gerber Fmt 4.6, Leading zero omitted, Abs format (unit mm)*
G04 Created by KiCad (PCBNEW 8.0.7) date 2025-05-19 16:35:52*
%MOMM*%
%LPD*%
G01*
G04 APERTURE LIST*
%ADD10C,0.150000*%
%ADD11C,0.200000*%
%ADD12C,0.100000*%
%ADD13C,0.120000*%
%ADD14C,0.127000*%
G04 APERTURE END LIST*
D10*
X207899095Y-86203819D02*
X207899095Y-87013342D01*
X207899095Y-87013342D02*
X207946714Y-87108580D01*
X207946714Y-87108580D02*
X207994333Y-87156200D01*
X207994333Y-87156200D02*
X208089571Y-87203819D01*
X208089571Y-87203819D02*
X208280047Y-87203819D01*
X208280047Y-87203819D02*
X208375285Y-87156200D01*
X208375285Y-87156200D02*
X208422904Y-87108580D01*
X208422904Y-87108580D02*
X208470523Y-87013342D01*
X208470523Y-87013342D02*
X208470523Y-86203819D01*
X209375285Y-86537152D02*
X209375285Y-87203819D01*
X209137190Y-86156200D02*
X208899095Y-86870485D01*
X208899095Y-86870485D02*
X209518142Y-86870485D01*
X240127635Y-51269006D02*
X240127635Y-50269006D01*
X240127635Y-50745196D02*
X240699063Y-50745196D01*
X240699063Y-51269006D02*
X240699063Y-50269006D01*
X241603825Y-50602339D02*
X241603825Y-51269006D01*
X241365730Y-50221387D02*
X241127635Y-50935672D01*
X241127635Y-50935672D02*
X241746682Y-50935672D01*
X170653635Y-95869006D02*
X170653635Y-94869006D01*
X170653635Y-95345196D02*
X171225063Y-95345196D01*
X171225063Y-95869006D02*
X171225063Y-94869006D01*
X171606016Y-94869006D02*
X172225063Y-94869006D01*
X172225063Y-94869006D02*
X171891730Y-95249958D01*
X171891730Y-95249958D02*
X172034587Y-95249958D01*
X172034587Y-95249958D02*
X172129825Y-95297577D01*
X172129825Y-95297577D02*
X172177444Y-95345196D01*
X172177444Y-95345196D02*
X172225063Y-95440434D01*
X172225063Y-95440434D02*
X172225063Y-95678529D01*
X172225063Y-95678529D02*
X172177444Y-95773767D01*
X172177444Y-95773767D02*
X172129825Y-95821387D01*
X172129825Y-95821387D02*
X172034587Y-95869006D01*
X172034587Y-95869006D02*
X171748873Y-95869006D01*
X171748873Y-95869006D02*
X171653635Y-95821387D01*
X171653635Y-95821387D02*
X171606016Y-95773767D01*
X240127635Y-95869006D02*
X240127635Y-94869006D01*
X240127635Y-95345196D02*
X240699063Y-95345196D01*
X240699063Y-95869006D02*
X240699063Y-94869006D01*
X241699063Y-95869006D02*
X241127635Y-95869006D01*
X241413349Y-95869006D02*
X241413349Y-94869006D01*
X241413349Y-94869006D02*
X241318111Y-95011863D01*
X241318111Y-95011863D02*
X241222873Y-95107101D01*
X241222873Y-95107101D02*
X241127635Y-95154720D01*
X159411200Y-63499904D02*
X159458819Y-63357047D01*
X159458819Y-63357047D02*
X159458819Y-63118952D01*
X159458819Y-63118952D02*
X159411200Y-63023714D01*
X159411200Y-63023714D02*
X159363580Y-62976095D01*
X159363580Y-62976095D02*
X159268342Y-62928476D01*
X159268342Y-62928476D02*
X159173104Y-62928476D01*
X159173104Y-62928476D02*
X159077866Y-62976095D01*
X159077866Y-62976095D02*
X159030247Y-63023714D01*
X159030247Y-63023714D02*
X158982628Y-63118952D01*
X158982628Y-63118952D02*
X158935009Y-63309428D01*
X158935009Y-63309428D02*
X158887390Y-63404666D01*
X158887390Y-63404666D02*
X158839771Y-63452285D01*
X158839771Y-63452285D02*
X158744533Y-63499904D01*
X158744533Y-63499904D02*
X158649295Y-63499904D01*
X158649295Y-63499904D02*
X158554057Y-63452285D01*
X158554057Y-63452285D02*
X158506438Y-63404666D01*
X158506438Y-63404666D02*
X158458819Y-63309428D01*
X158458819Y-63309428D02*
X158458819Y-63071333D01*
X158458819Y-63071333D02*
X158506438Y-62928476D01*
X159458819Y-61976095D02*
X159458819Y-62547523D01*
X159458819Y-62261809D02*
X158458819Y-62261809D01*
X158458819Y-62261809D02*
X158601676Y-62357047D01*
X158601676Y-62357047D02*
X158696914Y-62452285D01*
X158696914Y-62452285D02*
X158744533Y-62547523D01*
X170653833Y-70554866D02*
X170653833Y-71688200D01*
X170653833Y-71688200D02*
X170720500Y-71821533D01*
X170720500Y-71821533D02*
X170787166Y-71888200D01*
X170787166Y-71888200D02*
X170920500Y-71954866D01*
X170920500Y-71954866D02*
X171187166Y-71954866D01*
X171187166Y-71954866D02*
X171320500Y-71888200D01*
X171320500Y-71888200D02*
X171387166Y-71821533D01*
X171387166Y-71821533D02*
X171453833Y-71688200D01*
X171453833Y-71688200D02*
X171453833Y-70554866D01*
X171987167Y-70554866D02*
X172853833Y-70554866D01*
X172853833Y-70554866D02*
X172387167Y-71088200D01*
X172387167Y-71088200D02*
X172587167Y-71088200D01*
X172587167Y-71088200D02*
X172720500Y-71154866D01*
X172720500Y-71154866D02*
X172787167Y-71221533D01*
X172787167Y-71221533D02*
X172853833Y-71354866D01*
X172853833Y-71354866D02*
X172853833Y-71688200D01*
X172853833Y-71688200D02*
X172787167Y-71821533D01*
X172787167Y-71821533D02*
X172720500Y-71888200D01*
X172720500Y-71888200D02*
X172587167Y-71954866D01*
X172587167Y-71954866D02*
X172187167Y-71954866D01*
X172187167Y-71954866D02*
X172053833Y-71888200D01*
X172053833Y-71888200D02*
X171987167Y-71821533D01*
X181538819Y-55070333D02*
X182253104Y-55070333D01*
X182253104Y-55070333D02*
X182395961Y-55117952D01*
X182395961Y-55117952D02*
X182491200Y-55213190D01*
X182491200Y-55213190D02*
X182538819Y-55356047D01*
X182538819Y-55356047D02*
X182538819Y-55451285D01*
X181538819Y-54689380D02*
X181538819Y-54070333D01*
X181538819Y-54070333D02*
X181919771Y-54403666D01*
X181919771Y-54403666D02*
X181919771Y-54260809D01*
X181919771Y-54260809D02*
X181967390Y-54165571D01*
X181967390Y-54165571D02*
X182015009Y-54117952D01*
X182015009Y-54117952D02*
X182110247Y-54070333D01*
X182110247Y-54070333D02*
X182348342Y-54070333D01*
X182348342Y-54070333D02*
X182443580Y-54117952D01*
X182443580Y-54117952D02*
X182491200Y-54165571D01*
X182491200Y-54165571D02*
X182538819Y-54260809D01*
X182538819Y-54260809D02*
X182538819Y-54546523D01*
X182538819Y-54546523D02*
X182491200Y-54641761D01*
X182491200Y-54641761D02*
X182443580Y-54689380D01*
X172354333Y-53074580D02*
X172306714Y-53122200D01*
X172306714Y-53122200D02*
X172163857Y-53169819D01*
X172163857Y-53169819D02*
X172068619Y-53169819D01*
X172068619Y-53169819D02*
X171925762Y-53122200D01*
X171925762Y-53122200D02*
X171830524Y-53026961D01*
X171830524Y-53026961D02*
X171782905Y-52931723D01*
X171782905Y-52931723D02*
X171735286Y-52741247D01*
X171735286Y-52741247D02*
X171735286Y-52598390D01*
X171735286Y-52598390D02*
X171782905Y-52407914D01*
X171782905Y-52407914D02*
X171830524Y-52312676D01*
X171830524Y-52312676D02*
X171925762Y-52217438D01*
X171925762Y-52217438D02*
X172068619Y-52169819D01*
X172068619Y-52169819D02*
X172163857Y-52169819D01*
X172163857Y-52169819D02*
X172306714Y-52217438D01*
X172306714Y-52217438D02*
X172354333Y-52265057D01*
X172687667Y-52169819D02*
X173306714Y-52169819D01*
X173306714Y-52169819D02*
X172973381Y-52550771D01*
X172973381Y-52550771D02*
X173116238Y-52550771D01*
X173116238Y-52550771D02*
X173211476Y-52598390D01*
X173211476Y-52598390D02*
X173259095Y-52646009D01*
X173259095Y-52646009D02*
X173306714Y-52741247D01*
X173306714Y-52741247D02*
X173306714Y-52979342D01*
X173306714Y-52979342D02*
X173259095Y-53074580D01*
X173259095Y-53074580D02*
X173211476Y-53122200D01*
X173211476Y-53122200D02*
X173116238Y-53169819D01*
X173116238Y-53169819D02*
X172830524Y-53169819D01*
X172830524Y-53169819D02*
X172735286Y-53122200D01*
X172735286Y-53122200D02*
X172687667Y-53074580D01*
X200459819Y-57052666D02*
X199983628Y-57385999D01*
X200459819Y-57624094D02*
X199459819Y-57624094D01*
X199459819Y-57624094D02*
X199459819Y-57243142D01*
X199459819Y-57243142D02*
X199507438Y-57147904D01*
X199507438Y-57147904D02*
X199555057Y-57100285D01*
X199555057Y-57100285D02*
X199650295Y-57052666D01*
X199650295Y-57052666D02*
X199793152Y-57052666D01*
X199793152Y-57052666D02*
X199888390Y-57100285D01*
X199888390Y-57100285D02*
X199936009Y-57147904D01*
X199936009Y-57147904D02*
X199983628Y-57243142D01*
X199983628Y-57243142D02*
X199983628Y-57624094D01*
X199555057Y-56671713D02*
X199507438Y-56624094D01*
X199507438Y-56624094D02*
X199459819Y-56528856D01*
X199459819Y-56528856D02*
X199459819Y-56290761D01*
X199459819Y-56290761D02*
X199507438Y-56195523D01*
X199507438Y-56195523D02*
X199555057Y-56147904D01*
X199555057Y-56147904D02*
X199650295Y-56100285D01*
X199650295Y-56100285D02*
X199745533Y-56100285D01*
X199745533Y-56100285D02*
X199888390Y-56147904D01*
X199888390Y-56147904D02*
X200459819Y-56719332D01*
X200459819Y-56719332D02*
X200459819Y-56100285D01*
X162959580Y-76874666D02*
X163007200Y-76922285D01*
X163007200Y-76922285D02*
X163054819Y-77065142D01*
X163054819Y-77065142D02*
X163054819Y-77160380D01*
X163054819Y-77160380D02*
X163007200Y-77303237D01*
X163007200Y-77303237D02*
X162911961Y-77398475D01*
X162911961Y-77398475D02*
X162816723Y-77446094D01*
X162816723Y-77446094D02*
X162626247Y-77493713D01*
X162626247Y-77493713D02*
X162483390Y-77493713D01*
X162483390Y-77493713D02*
X162292914Y-77446094D01*
X162292914Y-77446094D02*
X162197676Y-77398475D01*
X162197676Y-77398475D02*
X162102438Y-77303237D01*
X162102438Y-77303237D02*
X162054819Y-77160380D01*
X162054819Y-77160380D02*
X162054819Y-77065142D01*
X162054819Y-77065142D02*
X162102438Y-76922285D01*
X162102438Y-76922285D02*
X162150057Y-76874666D01*
X162150057Y-76493713D02*
X162102438Y-76446094D01*
X162102438Y-76446094D02*
X162054819Y-76350856D01*
X162054819Y-76350856D02*
X162054819Y-76112761D01*
X162054819Y-76112761D02*
X162102438Y-76017523D01*
X162102438Y-76017523D02*
X162150057Y-75969904D01*
X162150057Y-75969904D02*
X162245295Y-75922285D01*
X162245295Y-75922285D02*
X162340533Y-75922285D01*
X162340533Y-75922285D02*
X162483390Y-75969904D01*
X162483390Y-75969904D02*
X163054819Y-76541332D01*
X163054819Y-76541332D02*
X163054819Y-75922285D01*
X165426819Y-96773904D02*
X166236342Y-96773904D01*
X166236342Y-96773904D02*
X166331580Y-96726285D01*
X166331580Y-96726285D02*
X166379200Y-96678666D01*
X166379200Y-96678666D02*
X166426819Y-96583428D01*
X166426819Y-96583428D02*
X166426819Y-96392952D01*
X166426819Y-96392952D02*
X166379200Y-96297714D01*
X166379200Y-96297714D02*
X166331580Y-96250095D01*
X166331580Y-96250095D02*
X166236342Y-96202476D01*
X166236342Y-96202476D02*
X165426819Y-96202476D01*
X166426819Y-95202476D02*
X166426819Y-95773904D01*
X166426819Y-95488190D02*
X165426819Y-95488190D01*
X165426819Y-95488190D02*
X165569676Y-95583428D01*
X165569676Y-95583428D02*
X165664914Y-95678666D01*
X165664914Y-95678666D02*
X165712533Y-95773904D01*
X158585819Y-75771333D02*
X159300104Y-75771333D01*
X159300104Y-75771333D02*
X159442961Y-75818952D01*
X159442961Y-75818952D02*
X159538200Y-75914190D01*
X159538200Y-75914190D02*
X159585819Y-76057047D01*
X159585819Y-76057047D02*
X159585819Y-76152285D01*
X158919152Y-74866571D02*
X159585819Y-74866571D01*
X158538200Y-75104666D02*
X159252485Y-75342761D01*
X159252485Y-75342761D02*
X159252485Y-74723714D01*
X210766819Y-63031666D02*
X210290628Y-63364999D01*
X210766819Y-63603094D02*
X209766819Y-63603094D01*
X209766819Y-63603094D02*
X209766819Y-63222142D01*
X209766819Y-63222142D02*
X209814438Y-63126904D01*
X209814438Y-63126904D02*
X209862057Y-63079285D01*
X209862057Y-63079285D02*
X209957295Y-63031666D01*
X209957295Y-63031666D02*
X210100152Y-63031666D01*
X210100152Y-63031666D02*
X210195390Y-63079285D01*
X210195390Y-63079285D02*
X210243009Y-63126904D01*
X210243009Y-63126904D02*
X210290628Y-63222142D01*
X210290628Y-63222142D02*
X210290628Y-63603094D01*
X209766819Y-62126904D02*
X209766819Y-62603094D01*
X209766819Y-62603094D02*
X210243009Y-62650713D01*
X210243009Y-62650713D02*
X210195390Y-62603094D01*
X210195390Y-62603094D02*
X210147771Y-62507856D01*
X210147771Y-62507856D02*
X210147771Y-62269761D01*
X210147771Y-62269761D02*
X210195390Y-62174523D01*
X210195390Y-62174523D02*
X210243009Y-62126904D01*
X210243009Y-62126904D02*
X210338247Y-62079285D01*
X210338247Y-62079285D02*
X210576342Y-62079285D01*
X210576342Y-62079285D02*
X210671580Y-62126904D01*
X210671580Y-62126904D02*
X210719200Y-62174523D01*
X210719200Y-62174523D02*
X210766819Y-62269761D01*
X210766819Y-62269761D02*
X210766819Y-62507856D01*
X210766819Y-62507856D02*
X210719200Y-62603094D01*
X210719200Y-62603094D02*
X210671580Y-62650713D01*
X190915057Y-66887238D02*
X190867438Y-66982476D01*
X190867438Y-66982476D02*
X190772200Y-67077714D01*
X190772200Y-67077714D02*
X190629342Y-67220571D01*
X190629342Y-67220571D02*
X190581723Y-67315809D01*
X190581723Y-67315809D02*
X190581723Y-67411047D01*
X190819819Y-67363428D02*
X190772200Y-67458666D01*
X190772200Y-67458666D02*
X190676961Y-67553904D01*
X190676961Y-67553904D02*
X190486485Y-67601523D01*
X190486485Y-67601523D02*
X190153152Y-67601523D01*
X190153152Y-67601523D02*
X189962676Y-67553904D01*
X189962676Y-67553904D02*
X189867438Y-67458666D01*
X189867438Y-67458666D02*
X189819819Y-67363428D01*
X189819819Y-67363428D02*
X189819819Y-67172952D01*
X189819819Y-67172952D02*
X189867438Y-67077714D01*
X189867438Y-67077714D02*
X189962676Y-66982476D01*
X189962676Y-66982476D02*
X190153152Y-66934857D01*
X190153152Y-66934857D02*
X190486485Y-66934857D01*
X190486485Y-66934857D02*
X190676961Y-66982476D01*
X190676961Y-66982476D02*
X190772200Y-67077714D01*
X190772200Y-67077714D02*
X190819819Y-67172952D01*
X190819819Y-67172952D02*
X190819819Y-67363428D01*
X190819819Y-65982476D02*
X190819819Y-66553904D01*
X190819819Y-66268190D02*
X189819819Y-66268190D01*
X189819819Y-66268190D02*
X189962676Y-66363428D01*
X189962676Y-66363428D02*
X190057914Y-66458666D01*
X190057914Y-66458666D02*
X190105533Y-66553904D01*
X182671819Y-67944904D02*
X183481342Y-67944904D01*
X183481342Y-67944904D02*
X183576580Y-67897285D01*
X183576580Y-67897285D02*
X183624200Y-67849666D01*
X183624200Y-67849666D02*
X183671819Y-67754428D01*
X183671819Y-67754428D02*
X183671819Y-67563952D01*
X183671819Y-67563952D02*
X183624200Y-67468714D01*
X183624200Y-67468714D02*
X183576580Y-67421095D01*
X183576580Y-67421095D02*
X183481342Y-67373476D01*
X183481342Y-67373476D02*
X182671819Y-67373476D01*
X182767057Y-66944904D02*
X182719438Y-66897285D01*
X182719438Y-66897285D02*
X182671819Y-66802047D01*
X182671819Y-66802047D02*
X182671819Y-66563952D01*
X182671819Y-66563952D02*
X182719438Y-66468714D01*
X182719438Y-66468714D02*
X182767057Y-66421095D01*
X182767057Y-66421095D02*
X182862295Y-66373476D01*
X182862295Y-66373476D02*
X182957533Y-66373476D01*
X182957533Y-66373476D02*
X183100390Y-66421095D01*
X183100390Y-66421095D02*
X183671819Y-66992523D01*
X183671819Y-66992523D02*
X183671819Y-66373476D01*
X185104580Y-65190666D02*
X185152200Y-65238285D01*
X185152200Y-65238285D02*
X185199819Y-65381142D01*
X185199819Y-65381142D02*
X185199819Y-65476380D01*
X185199819Y-65476380D02*
X185152200Y-65619237D01*
X185152200Y-65619237D02*
X185056961Y-65714475D01*
X185056961Y-65714475D02*
X184961723Y-65762094D01*
X184961723Y-65762094D02*
X184771247Y-65809713D01*
X184771247Y-65809713D02*
X184628390Y-65809713D01*
X184628390Y-65809713D02*
X184437914Y-65762094D01*
X184437914Y-65762094D02*
X184342676Y-65714475D01*
X184342676Y-65714475D02*
X184247438Y-65619237D01*
X184247438Y-65619237D02*
X184199819Y-65476380D01*
X184199819Y-65476380D02*
X184199819Y-65381142D01*
X184199819Y-65381142D02*
X184247438Y-65238285D01*
X184247438Y-65238285D02*
X184295057Y-65190666D01*
X185199819Y-64238285D02*
X185199819Y-64809713D01*
X185199819Y-64523999D02*
X184199819Y-64523999D01*
X184199819Y-64523999D02*
X184342676Y-64619237D01*
X184342676Y-64619237D02*
X184437914Y-64714475D01*
X184437914Y-64714475D02*
X184485533Y-64809713D01*
X212910819Y-67349666D02*
X212434628Y-67682999D01*
X212910819Y-67921094D02*
X211910819Y-67921094D01*
X211910819Y-67921094D02*
X211910819Y-67540142D01*
X211910819Y-67540142D02*
X211958438Y-67444904D01*
X211958438Y-67444904D02*
X212006057Y-67397285D01*
X212006057Y-67397285D02*
X212101295Y-67349666D01*
X212101295Y-67349666D02*
X212244152Y-67349666D01*
X212244152Y-67349666D02*
X212339390Y-67397285D01*
X212339390Y-67397285D02*
X212387009Y-67444904D01*
X212387009Y-67444904D02*
X212434628Y-67540142D01*
X212434628Y-67540142D02*
X212434628Y-67921094D01*
X211910819Y-66492523D02*
X211910819Y-66682999D01*
X211910819Y-66682999D02*
X211958438Y-66778237D01*
X211958438Y-66778237D02*
X212006057Y-66825856D01*
X212006057Y-66825856D02*
X212148914Y-66921094D01*
X212148914Y-66921094D02*
X212339390Y-66968713D01*
X212339390Y-66968713D02*
X212720342Y-66968713D01*
X212720342Y-66968713D02*
X212815580Y-66921094D01*
X212815580Y-66921094D02*
X212863200Y-66873475D01*
X212863200Y-66873475D02*
X212910819Y-66778237D01*
X212910819Y-66778237D02*
X212910819Y-66587761D01*
X212910819Y-66587761D02*
X212863200Y-66492523D01*
X212863200Y-66492523D02*
X212815580Y-66444904D01*
X212815580Y-66444904D02*
X212720342Y-66397285D01*
X212720342Y-66397285D02*
X212482247Y-66397285D01*
X212482247Y-66397285D02*
X212387009Y-66444904D01*
X212387009Y-66444904D02*
X212339390Y-66492523D01*
X212339390Y-66492523D02*
X212291771Y-66587761D01*
X212291771Y-66587761D02*
X212291771Y-66778237D01*
X212291771Y-66778237D02*
X212339390Y-66873475D01*
X212339390Y-66873475D02*
X212387009Y-66921094D01*
X212387009Y-66921094D02*
X212482247Y-66968713D01*
X195373666Y-51856819D02*
X195373666Y-52571104D01*
X195373666Y-52571104D02*
X195326047Y-52713961D01*
X195326047Y-52713961D02*
X195230809Y-52809200D01*
X195230809Y-52809200D02*
X195087952Y-52856819D01*
X195087952Y-52856819D02*
X194992714Y-52856819D01*
X195802238Y-51952057D02*
X195849857Y-51904438D01*
X195849857Y-51904438D02*
X195945095Y-51856819D01*
X195945095Y-51856819D02*
X196183190Y-51856819D01*
X196183190Y-51856819D02*
X196278428Y-51904438D01*
X196278428Y-51904438D02*
X196326047Y-51952057D01*
X196326047Y-51952057D02*
X196373666Y-52047295D01*
X196373666Y-52047295D02*
X196373666Y-52142533D01*
X196373666Y-52142533D02*
X196326047Y-52285390D01*
X196326047Y-52285390D02*
X195754619Y-52856819D01*
X195754619Y-52856819D02*
X196373666Y-52856819D01*
X161617819Y-58332666D02*
X161141628Y-58665999D01*
X161617819Y-58904094D02*
X160617819Y-58904094D01*
X160617819Y-58904094D02*
X160617819Y-58523142D01*
X160617819Y-58523142D02*
X160665438Y-58427904D01*
X160665438Y-58427904D02*
X160713057Y-58380285D01*
X160713057Y-58380285D02*
X160808295Y-58332666D01*
X160808295Y-58332666D02*
X160951152Y-58332666D01*
X160951152Y-58332666D02*
X161046390Y-58380285D01*
X161046390Y-58380285D02*
X161094009Y-58427904D01*
X161094009Y-58427904D02*
X161141628Y-58523142D01*
X161141628Y-58523142D02*
X161141628Y-58904094D01*
X161617819Y-57380285D02*
X161617819Y-57951713D01*
X161617819Y-57665999D02*
X160617819Y-57665999D01*
X160617819Y-57665999D02*
X160760676Y-57761237D01*
X160760676Y-57761237D02*
X160855914Y-57856475D01*
X160855914Y-57856475D02*
X160903533Y-57951713D01*
X204543819Y-62904666D02*
X204067628Y-63237999D01*
X204543819Y-63476094D02*
X203543819Y-63476094D01*
X203543819Y-63476094D02*
X203543819Y-63095142D01*
X203543819Y-63095142D02*
X203591438Y-62999904D01*
X203591438Y-62999904D02*
X203639057Y-62952285D01*
X203639057Y-62952285D02*
X203734295Y-62904666D01*
X203734295Y-62904666D02*
X203877152Y-62904666D01*
X203877152Y-62904666D02*
X203972390Y-62952285D01*
X203972390Y-62952285D02*
X204020009Y-62999904D01*
X204020009Y-62999904D02*
X204067628Y-63095142D01*
X204067628Y-63095142D02*
X204067628Y-63476094D01*
X203543819Y-62571332D02*
X203543819Y-61952285D01*
X203543819Y-61952285D02*
X203924771Y-62285618D01*
X203924771Y-62285618D02*
X203924771Y-62142761D01*
X203924771Y-62142761D02*
X203972390Y-62047523D01*
X203972390Y-62047523D02*
X204020009Y-61999904D01*
X204020009Y-61999904D02*
X204115247Y-61952285D01*
X204115247Y-61952285D02*
X204353342Y-61952285D01*
X204353342Y-61952285D02*
X204448580Y-61999904D01*
X204448580Y-61999904D02*
X204496200Y-62047523D01*
X204496200Y-62047523D02*
X204543819Y-62142761D01*
X204543819Y-62142761D02*
X204543819Y-62428475D01*
X204543819Y-62428475D02*
X204496200Y-62523713D01*
X204496200Y-62523713D02*
X204448580Y-62571332D01*
X172793819Y-56745094D02*
X171793819Y-56745094D01*
X171793819Y-56745094D02*
X171793819Y-56506999D01*
X171793819Y-56506999D02*
X171841438Y-56364142D01*
X171841438Y-56364142D02*
X171936676Y-56268904D01*
X171936676Y-56268904D02*
X172031914Y-56221285D01*
X172031914Y-56221285D02*
X172222390Y-56173666D01*
X172222390Y-56173666D02*
X172365247Y-56173666D01*
X172365247Y-56173666D02*
X172555723Y-56221285D01*
X172555723Y-56221285D02*
X172650961Y-56268904D01*
X172650961Y-56268904D02*
X172746200Y-56364142D01*
X172746200Y-56364142D02*
X172793819Y-56506999D01*
X172793819Y-56506999D02*
X172793819Y-56745094D01*
X172793819Y-55221285D02*
X172793819Y-55792713D01*
X172793819Y-55506999D02*
X171793819Y-55506999D01*
X171793819Y-55506999D02*
X171936676Y-55602237D01*
X171936676Y-55602237D02*
X172031914Y-55697475D01*
X172031914Y-55697475D02*
X172079533Y-55792713D01*
X168407819Y-60332904D02*
X167407819Y-60332904D01*
X168407819Y-59761476D02*
X167836390Y-60190047D01*
X167407819Y-59761476D02*
X167979247Y-60332904D01*
X207591819Y-63031666D02*
X207115628Y-63364999D01*
X207591819Y-63603094D02*
X206591819Y-63603094D01*
X206591819Y-63603094D02*
X206591819Y-63222142D01*
X206591819Y-63222142D02*
X206639438Y-63126904D01*
X206639438Y-63126904D02*
X206687057Y-63079285D01*
X206687057Y-63079285D02*
X206782295Y-63031666D01*
X206782295Y-63031666D02*
X206925152Y-63031666D01*
X206925152Y-63031666D02*
X207020390Y-63079285D01*
X207020390Y-63079285D02*
X207068009Y-63126904D01*
X207068009Y-63126904D02*
X207115628Y-63222142D01*
X207115628Y-63222142D02*
X207115628Y-63603094D01*
X206925152Y-62174523D02*
X207591819Y-62174523D01*
X206544200Y-62412618D02*
X207258485Y-62650713D01*
X207258485Y-62650713D02*
X207258485Y-62031666D01*
X179397819Y-98718666D02*
X179397819Y-99194856D01*
X179397819Y-99194856D02*
X178397819Y-99194856D01*
X179397819Y-97861523D02*
X179397819Y-98432951D01*
X179397819Y-98147237D02*
X178397819Y-98147237D01*
X178397819Y-98147237D02*
X178540676Y-98242475D01*
X178540676Y-98242475D02*
X178635914Y-98337713D01*
X178635914Y-98337713D02*
X178683533Y-98432951D01*
X203873057Y-67024238D02*
X203825438Y-67119476D01*
X203825438Y-67119476D02*
X203730200Y-67214714D01*
X203730200Y-67214714D02*
X203587342Y-67357571D01*
X203587342Y-67357571D02*
X203539723Y-67452809D01*
X203539723Y-67452809D02*
X203539723Y-67548047D01*
X203777819Y-67500428D02*
X203730200Y-67595666D01*
X203730200Y-67595666D02*
X203634961Y-67690904D01*
X203634961Y-67690904D02*
X203444485Y-67738523D01*
X203444485Y-67738523D02*
X203111152Y-67738523D01*
X203111152Y-67738523D02*
X202920676Y-67690904D01*
X202920676Y-67690904D02*
X202825438Y-67595666D01*
X202825438Y-67595666D02*
X202777819Y-67500428D01*
X202777819Y-67500428D02*
X202777819Y-67309952D01*
X202777819Y-67309952D02*
X202825438Y-67214714D01*
X202825438Y-67214714D02*
X202920676Y-67119476D01*
X202920676Y-67119476D02*
X203111152Y-67071857D01*
X203111152Y-67071857D02*
X203444485Y-67071857D01*
X203444485Y-67071857D02*
X203634961Y-67119476D01*
X203634961Y-67119476D02*
X203730200Y-67214714D01*
X203730200Y-67214714D02*
X203777819Y-67309952D01*
X203777819Y-67309952D02*
X203777819Y-67500428D01*
X202873057Y-66690904D02*
X202825438Y-66643285D01*
X202825438Y-66643285D02*
X202777819Y-66548047D01*
X202777819Y-66548047D02*
X202777819Y-66309952D01*
X202777819Y-66309952D02*
X202825438Y-66214714D01*
X202825438Y-66214714D02*
X202873057Y-66167095D01*
X202873057Y-66167095D02*
X202968295Y-66119476D01*
X202968295Y-66119476D02*
X203063533Y-66119476D01*
X203063533Y-66119476D02*
X203206390Y-66167095D01*
X203206390Y-66167095D02*
X203777819Y-66738523D01*
X203777819Y-66738523D02*
X203777819Y-66119476D01*
X159458819Y-85431238D02*
X158982628Y-85764571D01*
X159458819Y-86002666D02*
X158458819Y-86002666D01*
X158458819Y-86002666D02*
X158458819Y-85621714D01*
X158458819Y-85621714D02*
X158506438Y-85526476D01*
X158506438Y-85526476D02*
X158554057Y-85478857D01*
X158554057Y-85478857D02*
X158649295Y-85431238D01*
X158649295Y-85431238D02*
X158792152Y-85431238D01*
X158792152Y-85431238D02*
X158887390Y-85478857D01*
X158887390Y-85478857D02*
X158935009Y-85526476D01*
X158935009Y-85526476D02*
X158982628Y-85621714D01*
X158982628Y-85621714D02*
X158982628Y-86002666D01*
X158458819Y-85145523D02*
X159458819Y-84812190D01*
X159458819Y-84812190D02*
X158458819Y-84478857D01*
X159458819Y-83621714D02*
X159458819Y-84193142D01*
X159458819Y-83907428D02*
X158458819Y-83907428D01*
X158458819Y-83907428D02*
X158601676Y-84002666D01*
X158601676Y-84002666D02*
X158696914Y-84097904D01*
X158696914Y-84097904D02*
X158744533Y-84193142D01*
X181528819Y-59007333D02*
X182243104Y-59007333D01*
X182243104Y-59007333D02*
X182385961Y-59054952D01*
X182385961Y-59054952D02*
X182481200Y-59150190D01*
X182481200Y-59150190D02*
X182528819Y-59293047D01*
X182528819Y-59293047D02*
X182528819Y-59388285D01*
X182528819Y-58007333D02*
X182528819Y-58578761D01*
X182528819Y-58293047D02*
X181528819Y-58293047D01*
X181528819Y-58293047D02*
X181671676Y-58388285D01*
X181671676Y-58388285D02*
X181766914Y-58483523D01*
X181766914Y-58483523D02*
X181814533Y-58578761D01*
%TO.C,U4*%
D11*
X183656187Y-73051460D02*
X235156187Y-73051460D01*
X235156187Y-101351460D01*
X183656187Y-101351460D01*
X183656187Y-73051460D01*
D12*
X231916187Y-83211460D02*
X236170366Y-83211460D01*
X236170366Y-90831460D01*
X231916187Y-90831460D01*
X231916187Y-83211460D01*
D13*
%TO.C,S1*%
X156869000Y-64422000D02*
X158109000Y-64422000D01*
X158109000Y-64422000D02*
X158109000Y-63422000D01*
X143629000Y-64182000D02*
X157869000Y-64182000D01*
X143629000Y-64182000D02*
X143629000Y-51641000D01*
X148249000Y-64182000D02*
X148249000Y-61792000D01*
X151049000Y-64182000D02*
X151049000Y-51641000D01*
X156749000Y-64182000D02*
X156749000Y-51641000D01*
X157869000Y-64182000D02*
X157869000Y-51641000D01*
X143749000Y-62562000D02*
X157749000Y-62562000D01*
X143749000Y-62562000D02*
X143749000Y-57562000D01*
X157749000Y-62562000D02*
X157749000Y-57562000D01*
X151449000Y-62062000D02*
X152449000Y-62062000D01*
X151449000Y-62062000D02*
X151449000Y-58062000D01*
X152449000Y-62062000D02*
X152449000Y-61792000D01*
X153149000Y-62062000D02*
X156449000Y-62062000D01*
X153149000Y-62062000D02*
X153149000Y-61792000D01*
X156449000Y-62062000D02*
X156449000Y-58062000D01*
X144099000Y-60562000D02*
X146598000Y-60562000D01*
X144099000Y-60562000D02*
X144099000Y-59562000D01*
X146598000Y-60562000D02*
X146598000Y-59562000D01*
X144099000Y-59562000D02*
X146598000Y-59562000D01*
X148249000Y-59332000D02*
X148249000Y-56792000D01*
X152449000Y-59332000D02*
X152449000Y-58062000D01*
X153149000Y-59332000D02*
X153149000Y-58062000D01*
X151449000Y-58062000D02*
X152449000Y-58062000D01*
X153149000Y-58062000D02*
X156449000Y-58062000D01*
X143749000Y-57562000D02*
X157749000Y-57562000D01*
X143749000Y-57562000D02*
X157749000Y-57562000D01*
X143749000Y-57562000D02*
X143749000Y-52562000D01*
X157749000Y-57562000D02*
X157749000Y-52562000D01*
X151449000Y-57062000D02*
X152449000Y-57062000D01*
X151449000Y-57062000D02*
X151449000Y-53062000D01*
X152449000Y-57062000D02*
X152449000Y-56792000D01*
X153149000Y-57062000D02*
X156449000Y-57062000D01*
X153149000Y-57062000D02*
X153149000Y-56792000D01*
X156449000Y-57062000D02*
X156449000Y-53062000D01*
X144099000Y-55562000D02*
X146598000Y-55562000D01*
X144099000Y-55562000D02*
X144099000Y-54562000D01*
X146598000Y-55562000D02*
X146598000Y-54562000D01*
X144099000Y-54562000D02*
X146598000Y-54562000D01*
X148249000Y-54332000D02*
X148249000Y-51641000D01*
X152449000Y-54332000D02*
X152449000Y-53062000D01*
X153149000Y-54332000D02*
X153149000Y-53062000D01*
X151449000Y-53062000D02*
X152449000Y-53062000D01*
X153149000Y-53062000D02*
X156449000Y-53062000D01*
X143749000Y-52562000D02*
X157749000Y-52562000D01*
X143629000Y-51641000D02*
X157869000Y-51641000D01*
D14*
%TO.C,U3*%
X167255500Y-72644000D02*
X167255500Y-92964000D01*
X167255500Y-92964000D02*
X182495500Y-92964000D01*
X182495500Y-72644000D02*
X167255500Y-72644000D01*
X182495500Y-92964000D02*
X182495500Y-72644000D01*
D11*
X183185500Y-73914000D02*
G75*
G02*
X182985500Y-73914000I-100000J0D01*
G01*
X182985500Y-73914000D02*
G75*
G02*
X183185500Y-73914000I100000J0D01*
G01*
D13*
%TO.C,J3*%
X183084000Y-56067000D02*
X183084000Y-54737000D01*
X184414000Y-56067000D02*
X183084000Y-56067000D01*
X185684000Y-56067000D02*
X193364000Y-56067000D01*
X185684000Y-56067000D02*
X185684000Y-53407000D01*
X193364000Y-56067000D02*
X193364000Y-53407000D01*
X185684000Y-53407000D02*
X193364000Y-53407000D01*
%TO.C,C3*%
X172922302Y-54073000D02*
X173722302Y-54073000D01*
X173322302Y-53673000D02*
X173322302Y-54473000D01*
X177332000Y-52308000D02*
X177332000Y-60468000D01*
X177372000Y-52308000D02*
X177372000Y-60468000D01*
X177412000Y-52308000D02*
X177412000Y-60468000D01*
X177452000Y-52309000D02*
X177452000Y-60467000D01*
X177492000Y-52311000D02*
X177492000Y-60465000D01*
X177532000Y-52312000D02*
X177532000Y-60464000D01*
X177572000Y-52314000D02*
X177572000Y-60462000D01*
X177612000Y-52317000D02*
X177612000Y-60459000D01*
X177652000Y-52320000D02*
X177652000Y-60456000D01*
X177692000Y-52323000D02*
X177692000Y-60453000D01*
X177732000Y-52327000D02*
X177732000Y-60449000D01*
X177772000Y-52331000D02*
X177772000Y-60445000D01*
X177812000Y-52336000D02*
X177812000Y-60440000D01*
X177852000Y-52340000D02*
X177852000Y-60436000D01*
X177892000Y-52346000D02*
X177892000Y-60430000D01*
X177932000Y-52351000D02*
X177932000Y-60425000D01*
X177972000Y-52358000D02*
X177972000Y-60418000D01*
X178012000Y-52364000D02*
X178012000Y-60412000D01*
X178053000Y-52371000D02*
X178053000Y-60405000D01*
X178093000Y-52378000D02*
X178093000Y-60398000D01*
X178133000Y-52386000D02*
X178133000Y-60390000D01*
X178173000Y-52394000D02*
X178173000Y-60382000D01*
X178213000Y-52403000D02*
X178213000Y-60373000D01*
X178253000Y-52412000D02*
X178253000Y-60364000D01*
X178293000Y-52421000D02*
X178293000Y-60355000D01*
X178333000Y-52431000D02*
X178333000Y-60345000D01*
X178373000Y-52441000D02*
X178373000Y-60335000D01*
X178413000Y-52452000D02*
X178413000Y-60324000D01*
X178453000Y-52463000D02*
X178453000Y-60313000D01*
X178493000Y-52474000D02*
X178493000Y-60302000D01*
X178533000Y-52486000D02*
X178533000Y-60290000D01*
X178573000Y-52499000D02*
X178573000Y-60277000D01*
X178613000Y-52511000D02*
X178613000Y-60265000D01*
X178653000Y-52525000D02*
X178653000Y-60251000D01*
X178693000Y-52538000D02*
X178693000Y-60238000D01*
X178733000Y-52553000D02*
X178733000Y-60223000D01*
X178773000Y-52567000D02*
X178773000Y-60209000D01*
X178813000Y-52583000D02*
X178813000Y-55348000D01*
X178813000Y-57428000D02*
X178813000Y-60193000D01*
X178853000Y-52598000D02*
X178853000Y-55348000D01*
X178853000Y-57428000D02*
X178853000Y-60178000D01*
X178893000Y-52614000D02*
X178893000Y-55348000D01*
X178893000Y-57428000D02*
X178893000Y-60162000D01*
X178933000Y-52631000D02*
X178933000Y-55348000D01*
X178933000Y-57428000D02*
X178933000Y-60145000D01*
X178973000Y-52648000D02*
X178973000Y-55348000D01*
X178973000Y-57428000D02*
X178973000Y-60128000D01*
X179013000Y-52666000D02*
X179013000Y-55348000D01*
X179013000Y-57428000D02*
X179013000Y-60110000D01*
X179053000Y-52684000D02*
X179053000Y-55348000D01*
X179053000Y-57428000D02*
X179053000Y-60092000D01*
X179093000Y-52702000D02*
X179093000Y-55348000D01*
X179093000Y-57428000D02*
X179093000Y-60074000D01*
X179133000Y-52722000D02*
X179133000Y-55348000D01*
X179133000Y-57428000D02*
X179133000Y-60054000D01*
X179173000Y-52741000D02*
X179173000Y-55348000D01*
X179173000Y-57428000D02*
X179173000Y-60035000D01*
X179213000Y-52761000D02*
X179213000Y-55348000D01*
X179213000Y-57428000D02*
X179213000Y-60015000D01*
X179253000Y-52782000D02*
X179253000Y-55348000D01*
X179253000Y-57428000D02*
X179253000Y-59994000D01*
X179293000Y-52804000D02*
X179293000Y-55348000D01*
X179293000Y-57428000D02*
X179293000Y-59972000D01*
X179333000Y-52826000D02*
X179333000Y-55348000D01*
X179333000Y-57428000D02*
X179333000Y-59950000D01*
X179373000Y-52848000D02*
X179373000Y-55348000D01*
X179373000Y-57428000D02*
X179373000Y-59928000D01*
X179413000Y-52871000D02*
X179413000Y-55348000D01*
X179413000Y-57428000D02*
X179413000Y-59905000D01*
X179453000Y-52895000D02*
X179453000Y-55348000D01*
X179453000Y-57428000D02*
X179453000Y-59881000D01*
X179493000Y-52919000D02*
X179493000Y-55348000D01*
X179493000Y-57428000D02*
X179493000Y-59857000D01*
X179533000Y-52944000D02*
X179533000Y-55348000D01*
X179533000Y-57428000D02*
X179533000Y-59832000D01*
X179573000Y-52970000D02*
X179573000Y-55348000D01*
X179573000Y-57428000D02*
X179573000Y-59806000D01*
X179613000Y-52996000D02*
X179613000Y-55348000D01*
X179613000Y-57428000D02*
X179613000Y-59780000D01*
X179653000Y-53023000D02*
X179653000Y-55348000D01*
X179653000Y-57428000D02*
X179653000Y-59753000D01*
X179693000Y-53050000D02*
X179693000Y-55348000D01*
X179693000Y-57428000D02*
X179693000Y-59726000D01*
X179733000Y-53079000D02*
X179733000Y-55348000D01*
X179733000Y-57428000D02*
X179733000Y-59697000D01*
X179773000Y-53108000D02*
X179773000Y-55348000D01*
X179773000Y-57428000D02*
X179773000Y-59668000D01*
X179813000Y-53138000D02*
X179813000Y-55348000D01*
X179813000Y-57428000D02*
X179813000Y-59638000D01*
X179853000Y-53168000D02*
X179853000Y-55348000D01*
X179853000Y-57428000D02*
X179853000Y-59608000D01*
X179893000Y-53199000D02*
X179893000Y-55348000D01*
X179893000Y-57428000D02*
X179893000Y-59577000D01*
X179933000Y-53232000D02*
X179933000Y-55348000D01*
X179933000Y-57428000D02*
X179933000Y-59544000D01*
X179973000Y-53264000D02*
X179973000Y-55348000D01*
X179973000Y-57428000D02*
X179973000Y-59512000D01*
X180013000Y-53298000D02*
X180013000Y-55348000D01*
X180013000Y-57428000D02*
X180013000Y-59478000D01*
X180053000Y-53333000D02*
X180053000Y-55348000D01*
X180053000Y-57428000D02*
X180053000Y-59443000D01*
X180093000Y-53369000D02*
X180093000Y-55348000D01*
X180093000Y-57428000D02*
X180093000Y-59407000D01*
X180133000Y-53405000D02*
X180133000Y-55348000D01*
X180133000Y-57428000D02*
X180133000Y-59371000D01*
X180173000Y-53443000D02*
X180173000Y-55348000D01*
X180173000Y-57428000D02*
X180173000Y-59333000D01*
X180213000Y-53481000D02*
X180213000Y-55348000D01*
X180213000Y-57428000D02*
X180213000Y-59295000D01*
X180253000Y-53521000D02*
X180253000Y-55348000D01*
X180253000Y-57428000D02*
X180253000Y-59255000D01*
X180293000Y-53562000D02*
X180293000Y-55348000D01*
X180293000Y-57428000D02*
X180293000Y-59214000D01*
X180333000Y-53604000D02*
X180333000Y-55348000D01*
X180333000Y-57428000D02*
X180333000Y-59172000D01*
X180373000Y-53647000D02*
X180373000Y-55348000D01*
X180373000Y-57428000D02*
X180373000Y-59129000D01*
X180413000Y-53691000D02*
X180413000Y-55348000D01*
X180413000Y-57428000D02*
X180413000Y-59085000D01*
X180453000Y-53737000D02*
X180453000Y-55348000D01*
X180453000Y-57428000D02*
X180453000Y-59039000D01*
X180493000Y-53784000D02*
X180493000Y-55348000D01*
X180493000Y-57428000D02*
X180493000Y-58992000D01*
X180533000Y-53832000D02*
X180533000Y-55348000D01*
X180533000Y-57428000D02*
X180533000Y-58944000D01*
X180573000Y-53883000D02*
X180573000Y-55348000D01*
X180573000Y-57428000D02*
X180573000Y-58893000D01*
X180613000Y-53934000D02*
X180613000Y-55348000D01*
X180613000Y-57428000D02*
X180613000Y-58842000D01*
X180653000Y-53988000D02*
X180653000Y-55348000D01*
X180653000Y-57428000D02*
X180653000Y-58788000D01*
X180693000Y-54043000D02*
X180693000Y-55348000D01*
X180693000Y-57428000D02*
X180693000Y-58733000D01*
X180733000Y-54101000D02*
X180733000Y-55348000D01*
X180733000Y-57428000D02*
X180733000Y-58675000D01*
X180773000Y-54160000D02*
X180773000Y-55348000D01*
X180773000Y-57428000D02*
X180773000Y-58616000D01*
X180813000Y-54222000D02*
X180813000Y-55348000D01*
X180813000Y-57428000D02*
X180813000Y-58554000D01*
X180853000Y-54286000D02*
X180853000Y-55348000D01*
X180853000Y-57428000D02*
X180853000Y-58490000D01*
X180893000Y-54354000D02*
X180893000Y-58422000D01*
X180933000Y-54424000D02*
X180933000Y-58352000D01*
X180973000Y-54498000D02*
X180973000Y-58278000D01*
X181013000Y-54575000D02*
X181013000Y-58201000D01*
X181053000Y-54657000D02*
X181053000Y-58119000D01*
X181093000Y-54743000D02*
X181093000Y-58033000D01*
X181133000Y-54836000D02*
X181133000Y-57940000D01*
X181173000Y-54935000D02*
X181173000Y-57841000D01*
X181213000Y-55042000D02*
X181213000Y-57734000D01*
X181253000Y-55159000D02*
X181253000Y-57617000D01*
X181293000Y-55290000D02*
X181293000Y-57486000D01*
X181333000Y-55440000D02*
X181333000Y-57336000D01*
X181373000Y-55620000D02*
X181373000Y-57156000D01*
X181413000Y-55855000D02*
X181413000Y-56921000D01*
X181452000Y-56388000D02*
G75*
G02*
X173212000Y-56388000I-4120000J0D01*
G01*
X173212000Y-56388000D02*
G75*
G02*
X181452000Y-56388000I4120000J0D01*
G01*
%TO.C,R2*%
X201925000Y-59756000D02*
X201925000Y-58806000D01*
X201005000Y-58806000D02*
X202845000Y-58806000D01*
X202845000Y-58806000D02*
X202845000Y-54966000D01*
X201005000Y-54966000D02*
X201005000Y-58806000D01*
X202845000Y-54966000D02*
X201005000Y-54966000D01*
X201925000Y-54016000D02*
X201925000Y-54966000D01*
%TO.C,C2*%
X163730000Y-79328000D02*
X166470000Y-79328000D01*
X163730000Y-79328000D02*
X163730000Y-74088000D01*
X166470000Y-79328000D02*
X166470000Y-74088000D01*
X163730000Y-74088000D02*
X166470000Y-74088000D01*
%TO.C,U1*%
X164972000Y-90892000D02*
X149082000Y-90892000D01*
X164972000Y-90892000D02*
X164972000Y-101132000D01*
X149082000Y-90892000D02*
X149082000Y-101132000D01*
X149082000Y-93472000D02*
X146542000Y-93472000D01*
X149082000Y-96012000D02*
X146542000Y-96012000D01*
X149082000Y-98552000D02*
X146542000Y-98552000D01*
X164972000Y-101132000D02*
X149082000Y-101132000D01*
%TO.C,J4*%
X156869000Y-87948000D02*
X158109000Y-87948000D01*
X158109000Y-87948000D02*
X158109000Y-86948000D01*
X143629000Y-87708000D02*
X157869000Y-87708000D01*
X143629000Y-87708000D02*
X143629000Y-65168000D01*
X148249000Y-87708000D02*
X148249000Y-85318000D01*
X151049000Y-87708000D02*
X151049000Y-65168000D01*
X156749000Y-87708000D02*
X156749000Y-65168000D01*
X157869000Y-87708000D02*
X157869000Y-65168000D01*
X143749000Y-86088000D02*
X157749000Y-86088000D01*
X143749000Y-86088000D02*
X143749000Y-81088000D01*
X157749000Y-86088000D02*
X157749000Y-81088000D01*
X151449000Y-85588000D02*
X152449000Y-85588000D01*
X151449000Y-85588000D02*
X151449000Y-81588000D01*
X152449000Y-85588000D02*
X152449000Y-85318000D01*
X153149000Y-85588000D02*
X156449000Y-85588000D01*
X153149000Y-85588000D02*
X153149000Y-85318000D01*
X156449000Y-85588000D02*
X156449000Y-81588000D01*
X144099000Y-84088000D02*
X146598000Y-84088000D01*
X144099000Y-84088000D02*
X144099000Y-83088000D01*
X146598000Y-84088000D02*
X146598000Y-83088000D01*
X144099000Y-83088000D02*
X146598000Y-83088000D01*
X148249000Y-82858000D02*
X148249000Y-80318000D01*
X152449000Y-82858000D02*
X152449000Y-81588000D01*
X153149000Y-82858000D02*
X153149000Y-81588000D01*
X151449000Y-81588000D02*
X152449000Y-81588000D01*
X153149000Y-81588000D02*
X156449000Y-81588000D01*
X143749000Y-81088000D02*
X157749000Y-81088000D01*
X143749000Y-81088000D02*
X157749000Y-81088000D01*
X143749000Y-81088000D02*
X143749000Y-76088000D01*
X157749000Y-81088000D02*
X157749000Y-76088000D01*
X151449000Y-80588000D02*
X152449000Y-80588000D01*
X151449000Y-80588000D02*
X151449000Y-76588000D01*
X152449000Y-80588000D02*
X152449000Y-80318000D01*
X153149000Y-80588000D02*
X156449000Y-80588000D01*
X153149000Y-80588000D02*
X153149000Y-80318000D01*
X156449000Y-80588000D02*
X156449000Y-76588000D01*
X144099000Y-79088000D02*
X146598000Y-79088000D01*
X144099000Y-79088000D02*
X144099000Y-78088000D01*
X146598000Y-79088000D02*
X146598000Y-78088000D01*
X144099000Y-78088000D02*
X146598000Y-78088000D01*
X148249000Y-77858000D02*
X148249000Y-75318000D01*
X152449000Y-77858000D02*
X152449000Y-76588000D01*
X153149000Y-77858000D02*
X153149000Y-76588000D01*
X151449000Y-76588000D02*
X152449000Y-76588000D01*
X153149000Y-76588000D02*
X156449000Y-76588000D01*
X143749000Y-76088000D02*
X157749000Y-76088000D01*
X143749000Y-76088000D02*
X157749000Y-76088000D01*
X143749000Y-76088000D02*
X143749000Y-71088000D01*
X157749000Y-76088000D02*
X157749000Y-71088000D01*
X151449000Y-75588000D02*
X152449000Y-75588000D01*
X151449000Y-75588000D02*
X151449000Y-71588000D01*
X152449000Y-75588000D02*
X152449000Y-75318000D01*
X153149000Y-75588000D02*
X156449000Y-75588000D01*
X153149000Y-75588000D02*
X153149000Y-75318000D01*
X156449000Y-75588000D02*
X156449000Y-71588000D01*
X144099000Y-74088000D02*
X146598000Y-74088000D01*
X144099000Y-74088000D02*
X144099000Y-73088000D01*
X146598000Y-74088000D02*
X146598000Y-73088000D01*
X144099000Y-73088000D02*
X146598000Y-73088000D01*
X148249000Y-72858000D02*
X148249000Y-70318000D01*
X152449000Y-72858000D02*
X152449000Y-71588000D01*
X153149000Y-72858000D02*
X153149000Y-71588000D01*
X151449000Y-71588000D02*
X152449000Y-71588000D01*
X153149000Y-71588000D02*
X156449000Y-71588000D01*
X143749000Y-71088000D02*
X157749000Y-71088000D01*
X143749000Y-71088000D02*
X157749000Y-71088000D01*
X143749000Y-71088000D02*
X143749000Y-66088000D01*
X157749000Y-71088000D02*
X157749000Y-66088000D01*
X151449000Y-70588000D02*
X152449000Y-70588000D01*
X151449000Y-70588000D02*
X151449000Y-66588000D01*
X152449000Y-70588000D02*
X152449000Y-70318000D01*
X153149000Y-70588000D02*
X156449000Y-70588000D01*
X153149000Y-70588000D02*
X153149000Y-70318000D01*
X156449000Y-70588000D02*
X156449000Y-66588000D01*
X144099000Y-69088000D02*
X146598000Y-69088000D01*
X144099000Y-69088000D02*
X144099000Y-68088000D01*
X146598000Y-69088000D02*
X146598000Y-68088000D01*
X144099000Y-68088000D02*
X146598000Y-68088000D01*
X148249000Y-67858000D02*
X148249000Y-65168000D01*
X152449000Y-67858000D02*
X152449000Y-66588000D01*
X153149000Y-67858000D02*
X153149000Y-66588000D01*
X151449000Y-66588000D02*
X152449000Y-66588000D01*
X153149000Y-66588000D02*
X156449000Y-66588000D01*
X143749000Y-66088000D02*
X157749000Y-66088000D01*
X143629000Y-65168000D02*
X157869000Y-65168000D01*
%TO.C,R5*%
X211375000Y-59756000D02*
X211375000Y-58806000D01*
X210455000Y-58806000D02*
X212295000Y-58806000D01*
X212295000Y-58806000D02*
X212295000Y-54966000D01*
X210455000Y-54966000D02*
X210455000Y-58806000D01*
X212295000Y-54966000D02*
X210455000Y-54966000D01*
X211375000Y-54016000D02*
X211375000Y-54966000D01*
%TO.C,Q1*%
X180530000Y-61682000D02*
X164640000Y-61682000D01*
X180530000Y-61682000D02*
X180530000Y-71922000D01*
X164640000Y-61682000D02*
X164640000Y-71922000D01*
X164640000Y-64262000D02*
X162100000Y-64262000D01*
X164640000Y-66802000D02*
X162100000Y-66802000D01*
X164640000Y-69342000D02*
X162100000Y-69342000D01*
X180530000Y-71922000D02*
X164640000Y-71922000D01*
%TO.C,U2*%
X184217000Y-69833000D02*
X202117000Y-69833000D01*
X202117000Y-69833000D02*
X202117000Y-64533000D01*
X184217000Y-68183000D02*
X184217000Y-69833000D01*
X184217000Y-64533000D02*
X184217000Y-66183000D01*
X202117000Y-64533000D02*
X184217000Y-64533000D01*
X184217000Y-66183000D02*
G75*
G02*
X184217000Y-68183000I0J-1000000D01*
G01*
%TO.C,C1*%
X183615000Y-62404000D02*
X180875000Y-62404000D01*
X183615000Y-62404000D02*
X183615000Y-67644000D01*
X180875000Y-62404000D02*
X180875000Y-67644000D01*
X183615000Y-67644000D02*
X180875000Y-67644000D01*
%TO.C,R6*%
X214376000Y-70053000D02*
X214376000Y-69103000D01*
X213456000Y-69103000D02*
X215296000Y-69103000D01*
X215296000Y-69103000D02*
X215296000Y-65263000D01*
X213456000Y-65263000D02*
X213456000Y-69103000D01*
X215296000Y-65263000D02*
X213456000Y-65263000D01*
X214376000Y-64313000D02*
X214376000Y-65263000D01*
%TO.C,Murata-Ceramic-Capacitor-50v1-22uF1*%
X145822000Y-103409000D02*
X147080000Y-103409000D01*
X145822000Y-101569000D02*
X147080000Y-101569000D01*
%TO.C,J2*%
X194377000Y-53402000D02*
X195707000Y-53402000D01*
X194377000Y-54732000D02*
X194377000Y-53402000D01*
X194377000Y-56002000D02*
X194377000Y-58602000D01*
X194377000Y-56002000D02*
X197037000Y-56002000D01*
X194377000Y-58602000D02*
X197037000Y-58602000D01*
X197037000Y-56002000D02*
X197037000Y-58602000D01*
%TO.C,Murata-Ceramic-Capacitor-50v1-22uF2*%
X145802000Y-88488000D02*
X147060000Y-88488000D01*
X145802000Y-90328000D02*
X147060000Y-90328000D01*
%TO.C,R1*%
X159512000Y-59131000D02*
X159512000Y-58181000D01*
X158592000Y-58181000D02*
X160432000Y-58181000D01*
X160432000Y-58181000D02*
X160432000Y-54341000D01*
X158592000Y-54341000D02*
X158592000Y-58181000D01*
X160432000Y-54341000D02*
X158592000Y-54341000D01*
X159512000Y-53391000D02*
X159512000Y-54341000D01*
%TO.C,R3*%
X205075000Y-59756000D02*
X205075000Y-58806000D01*
X204155000Y-58806000D02*
X205995000Y-58806000D01*
X205995000Y-58806000D02*
X205995000Y-54966000D01*
X204155000Y-54966000D02*
X204155000Y-58806000D01*
X205995000Y-54966000D02*
X204155000Y-54966000D01*
X205075000Y-54016000D02*
X205075000Y-54966000D01*
%TO.C,D1*%
X168583000Y-58981000D02*
X168583000Y-53541000D01*
X168713000Y-58981000D02*
X168583000Y-58981000D01*
X171393000Y-58981000D02*
X171523000Y-58981000D01*
X171523000Y-58981000D02*
X171523000Y-53541000D01*
X168583000Y-58201000D02*
X171523000Y-58201000D01*
X168583000Y-58081000D02*
X171523000Y-58081000D01*
X168583000Y-57961000D02*
X171523000Y-57961000D01*
X168583000Y-53541000D02*
X168713000Y-53541000D01*
X171523000Y-53541000D02*
X171393000Y-53541000D01*
%TO.C,R4*%
X208225000Y-59756000D02*
X208225000Y-58806000D01*
X207305000Y-58806000D02*
X209145000Y-58806000D01*
X209145000Y-58806000D02*
X209145000Y-54966000D01*
X207305000Y-54966000D02*
X207305000Y-58806000D01*
X209145000Y-54966000D02*
X207305000Y-54966000D01*
X208225000Y-54016000D02*
X208225000Y-54966000D01*
%TO.C,L1*%
X176911000Y-101422000D02*
X176911000Y-100472000D01*
X175991000Y-100472000D02*
X177831000Y-100472000D01*
X177831000Y-100472000D02*
X177831000Y-96632000D01*
X175991000Y-96632000D02*
X175991000Y-100472000D01*
X177831000Y-96632000D02*
X175991000Y-96632000D01*
X176911000Y-95682000D02*
X176911000Y-96632000D01*
%TO.C,Q2*%
X208733000Y-68729000D02*
X208733000Y-65129000D01*
X208721478Y-68767478D02*
G75*
G02*
X204282999Y-66929000I-1838478J1838478D01*
G01*
X204283000Y-66929000D02*
G75*
G02*
X208721478Y-65090522I2600000J0D01*
G01*
%TO.C,RV1*%
X159903000Y-89838000D02*
X164973000Y-89838000D01*
X159903000Y-89838000D02*
X159903000Y-80068000D01*
X164973000Y-89838000D02*
X164973000Y-80068000D01*
X159903000Y-80068000D02*
X164973000Y-80068000D01*
%TO.C,J1*%
X183074000Y-61274000D02*
X183074000Y-59944000D01*
X184404000Y-61274000D02*
X183074000Y-61274000D01*
X185674000Y-61274000D02*
X193354000Y-61274000D01*
X185674000Y-61274000D02*
X185674000Y-58674000D01*
X193354000Y-61274000D02*
X193354000Y-56074000D01*
X183074000Y-58674000D02*
X183074000Y-56074000D01*
X185674000Y-58674000D02*
X183074000Y-58674000D01*
X183074000Y-56074000D02*
X193354000Y-56074000D01*
%TD*%
M02*
