M48
; DRILL file {KiCad 8.0.7} date 2025-05-19T16:35:39+0200
; FORMAT={-:-/ absolute / inch / decimal}
; #@! TF.CreationDate,2025-05-19T16:35:39+02:00
; #@! TF.GenerationSoftware,Kicad,Pcbnew,8.0.7
; #@! TF.FileFunction,Plated,1,4,PTH
FMAT,2
INCH
; #@! TA.AperFunction,Plated,PTH,ViaDrill
T1C0.0079
; #@! TA.AperFunction,Plated,PTH,ViaDrill
T2C0.0098
; #@! TA.AperFunction,Plated,PTH,ComponentDrill
T3C0.0197
; #@! TA.AperFunction,Plated,PTH,ComponentDrill
T4C0.0276
; #@! TA.AperFunction,Plated,PTH,ComponentDrill
T5C0.0295
; #@! TA.AperFunction,Plated,PTH,ComponentDrill
T6C0.0315
; #@! TA.AperFunction,Plated,PTH,ComponentDrill
T7C0.0394
; #@! TA.AperFunction,Plated,PTH,ComponentDrill
T8C0.0400
; #@! TA.AperFunction,Plated,PTH,ComponentDrill
T9C0.0433
; #@! TA.AperFunction,Plated,PTH,ComponentDrill
T10C0.0453
; #@! TA.AperFunction,Plated,PTH,ComponentDrill
T11C0.1260
%
G90
G05
T1
X6.765Y-3.07
T2
X7.61Y-2.6659
X7.64Y-2.2354
X7.6471Y-2.3313
X7.82Y-2.725
X7.875Y-2.43
X7.9861Y-3.135
X8.06Y-2.775
X8.195Y-2.51
X8.255Y-2.605
T3
X6.3864Y-2.1659
X6.4141Y-2.0991
X6.4141Y-2.2327
X6.4809Y-2.0714
X6.4809Y-2.2604
X6.5477Y-2.0991
X6.5477Y-2.2327
X6.5754Y-2.1659
X6.6542Y-3.9218
X6.6818Y-3.855
X6.6818Y-3.9886
X6.7486Y-3.8273
X6.7486Y-4.0163
X6.8155Y-3.855
X6.8155Y-3.9886
X6.8431Y-3.9218
X9.3894Y-2.1659
X9.3894Y-3.9218
X9.417Y-2.0991
X9.417Y-2.2327
X9.417Y-3.855
X9.417Y-3.9886
X9.4838Y-2.0714
X9.4838Y-2.2604
X9.4838Y-3.8273
X9.4838Y-4.0163
X9.5507Y-2.0991
X9.5507Y-2.2327
X9.5507Y-3.855
X9.5507Y-3.9886
X9.5783Y-2.1659
X9.5783Y-3.9218
T4
X6.28Y-2.065
X6.28Y-2.365
X6.965Y-3.73
X6.965Y-4.03
X7.9498Y-2.0896
X7.9498Y-2.3896
X8.0738Y-2.0896
X8.0738Y-2.3896
X8.1978Y-2.0896
X8.1978Y-2.3896
X8.3219Y-2.0896
X8.3219Y-2.3896
X8.44Y-2.495
X8.44Y-2.795
T5
X8.145Y-2.585
X8.145Y-2.635
X8.145Y-2.685
T6
X5.7158Y-3.52
X5.7166Y-4.035
X5.8142Y-3.52
X5.815Y-4.035
X6.395Y-3.2446
X6.395Y-3.3446
X6.395Y-3.4446
X6.5Y-2.9708
X6.5Y-3.0692
X6.8831Y-2.22
X7.08Y-2.22
X7.175Y-2.5108
X7.175Y-2.6092
X7.305Y-2.495
X7.305Y-2.795
X7.405Y-2.495
X7.405Y-2.795
X7.505Y-2.495
X7.505Y-2.795
X7.54Y-2.935
X7.54Y-3.935
X7.605Y-2.495
X7.605Y-2.795
X7.64Y-2.935
X7.64Y-3.935
X7.705Y-2.495
X7.705Y-2.795
X7.74Y-2.935
X7.74Y-3.935
X7.805Y-2.495
X7.805Y-2.795
X7.84Y-2.935
X7.84Y-3.935
X7.905Y-2.495
X7.905Y-2.795
X7.94Y-2.935
X7.94Y-3.935
X8.04Y-2.935
X8.04Y-3.935
X8.14Y-2.935
X8.14Y-3.935
X8.24Y-2.935
X8.24Y-3.935
X8.34Y-2.935
X8.34Y-3.935
X8.44Y-2.935
X8.44Y-3.935
X8.54Y-2.935
X8.54Y-3.935
X8.64Y-2.935
X8.64Y-3.935
X8.74Y-2.935
X8.74Y-3.935
X8.84Y-2.935
X8.84Y-3.935
X8.94Y-2.935
X8.94Y-3.935
T7
X7.26Y-2.26
X7.26Y-2.36
X7.2604Y-2.155
X7.36Y-2.26
X7.36Y-2.36
X7.3604Y-2.155
X7.46Y-2.26
X7.46Y-2.36
X7.4604Y-2.155
X7.56Y-2.26
X7.56Y-2.36
X7.5604Y-2.155
X7.705Y-2.1548
X7.705Y-2.2548
T8
X6.6349Y-2.91
X6.6349Y-3.01
X6.6349Y-3.11
X6.6349Y-3.21
X6.6349Y-3.31
X6.6349Y-3.41
X6.6349Y-3.51
X6.6349Y-3.61
X6.9349Y-3.61
X6.9849Y-3.545
X7.0349Y-3.61
X7.1349Y-2.91
X7.1349Y-3.01
X7.1349Y-3.11
X7.1349Y-3.21
X7.1349Y-3.31
X7.1349Y-3.41
X7.1349Y-3.51
X7.1349Y-3.61
T9
X5.7241Y-3.68
X5.7241Y-3.78
X5.7241Y-3.88
X6.3366Y-2.53
X6.3366Y-2.63
X6.3366Y-2.73
X6.695Y-2.065
X6.695Y-2.365
T10
X5.8563Y-2.1875
X5.8563Y-2.3843
X5.8563Y-2.72
X5.8563Y-2.9169
X5.8563Y-3.1137
X5.8563Y-3.3106
X6.0531Y-2.1875
X6.0531Y-2.3843
X6.0531Y-2.72
X6.0531Y-2.9169
X6.0531Y-3.1137
X6.0531Y-3.3106
T11
X6.4809Y-2.1659
X6.7486Y-3.9218
X9.4838Y-2.1659
X9.4838Y-3.9218
M30
