%TF.GenerationSoftware,KiCad,Pcbnew,8.0.7*%
%TF.CreationDate,2025-05-19T16:35:52+02:00*%
%TF.ProjectId,nils-tmc5160,6e696c73-2d74-46d6-9335-3136302e6b69,rev?*%
%TF.SameCoordinates,Original*%
%TF.FileFunction,Copper,L4,Bot*%
%TF.FilePolarity,Positive*%
%FSLAX46Y46*%
G04 Gerber Fmt 4.6, Leading zero omitted, Abs format (unit mm)*
G04 Created by KiCad (PCBNEW 8.0.7) date 2025-05-19 16:35:52*
%MOMM*%
%LPD*%
G01*
G04 APERTURE LIST*
%TA.AperFunction,ComponentPad*%
%ADD10O,1.524000X1.900000*%
%TD*%
%TA.AperFunction,ComponentPad*%
%ADD11C,0.800000*%
%TD*%
%TA.AperFunction,ComponentPad*%
%ADD12C,6.400000*%
%TD*%
%TA.AperFunction,ComponentPad*%
%ADD13R,3.000000X1.500000*%
%TD*%
%TA.AperFunction,ComponentPad*%
%ADD14O,3.000000X1.500000*%
%TD*%
%TA.AperFunction,ComponentPad*%
%ADD15C,1.524000*%
%TD*%
%TA.AperFunction,ComponentPad*%
%ADD16R,1.524000X1.524000*%
%TD*%
%TA.AperFunction,ComponentPad*%
%ADD17R,1.700000X1.700000*%
%TD*%
%TA.AperFunction,ComponentPad*%
%ADD18O,1.700000X1.700000*%
%TD*%
%TA.AperFunction,ComponentPad*%
%ADD19R,1.600000X1.600000*%
%TD*%
%TA.AperFunction,ComponentPad*%
%ADD20C,1.600000*%
%TD*%
%TA.AperFunction,ComponentPad*%
%ADD21C,1.400000*%
%TD*%
%TA.AperFunction,ComponentPad*%
%ADD22O,1.400000X1.400000*%
%TD*%
%TA.AperFunction,ComponentPad*%
%ADD23R,2.000000X1.905000*%
%TD*%
%TA.AperFunction,ComponentPad*%
%ADD24O,2.000000X1.905000*%
%TD*%
%TA.AperFunction,ComponentPad*%
%ADD25O,1.600000X1.600000*%
%TD*%
%TA.AperFunction,ComponentPad*%
%ADD26R,2.200000X2.200000*%
%TD*%
%TA.AperFunction,ComponentPad*%
%ADD27O,2.200000X2.200000*%
%TD*%
%TA.AperFunction,ComponentPad*%
%ADD28R,1.500000X1.050000*%
%TD*%
%TA.AperFunction,ComponentPad*%
%ADD29O,1.500000X1.050000*%
%TD*%
%TA.AperFunction,ComponentPad*%
%ADD30C,1.440000*%
%TD*%
%TA.AperFunction,ViaPad*%
%ADD31C,0.450000*%
%TD*%
%TA.AperFunction,Conductor*%
%ADD32C,0.300000*%
%TD*%
%TA.AperFunction,Conductor*%
%ADD33C,0.349250*%
%TD*%
%TA.AperFunction,Conductor*%
%ADD34C,0.500000*%
%TD*%
%TA.AperFunction,Conductor*%
%ADD35C,1.300000*%
%TD*%
%TA.AperFunction,Conductor*%
%ADD36C,1.000000*%
%TD*%
G04 APERTURE END LIST*
D10*
%TO.P,U4,1,VIN*%
%TO.N,+5V*%
X227076000Y-99949000D03*
%TO.P,U4,2,GND*%
%TO.N,GND*%
X224536000Y-99949000D03*
%TO.P,U4,3,GPIO13*%
%TO.N,/MCU_DIR*%
X221996000Y-99949000D03*
%TO.P,U4,4,GPIO12*%
%TO.N,/MCU_EN*%
X219456000Y-99949000D03*
%TO.P,U4,5,GPIO14*%
%TO.N,/MCU_STEP*%
X216916000Y-99949000D03*
%TO.P,U4,6,GPIO27*%
%TO.N,/MCU_STOP*%
X214376000Y-99949000D03*
%TO.P,U4,7,GPIO26*%
%TO.N,unconnected-(U4-GPIO26-Pad7)*%
X211836000Y-99949000D03*
%TO.P,U4,8,GPIO25*%
%TO.N,unconnected-(U4-GPIO25-Pad8)*%
X209296000Y-99949000D03*
%TO.P,U4,9,GPIO33*%
%TO.N,unconnected-(U4-GPIO33-Pad9)*%
X206756000Y-99949000D03*
%TO.P,U4,10,GPIO32*%
%TO.N,unconnected-(U4-GPIO32-Pad10)*%
X204216000Y-99949000D03*
%TO.P,U4,11,GPIO35*%
%TO.N,unconnected-(U4-GPIO35-Pad11)*%
X201676000Y-99949000D03*
%TO.P,U4,12,GPIO34*%
%TO.N,unconnected-(U4-GPIO34-Pad12)*%
X199136000Y-99949000D03*
%TO.P,U4,13,GPIO39*%
%TO.N,unconnected-(U4-GPIO39-Pad13)*%
X196596000Y-99949000D03*
%TO.P,U4,14,GPIO36*%
%TO.N,unconnected-(U4-GPIO36-Pad14)*%
X194056000Y-99949000D03*
%TO.P,U4,15,EN*%
%TO.N,unconnected-(U4-EN-Pad15)*%
X191516000Y-99949000D03*
%TO.P,U4,16,3.3v*%
%TO.N,+3.3V*%
X227076000Y-74549000D03*
%TO.P,U4,17,GND*%
%TO.N,GND*%
X224536000Y-74549000D03*
%TO.P,U4,18,GPIO15*%
%TO.N,unconnected-(U4-GPIO15-Pad18)*%
X221996000Y-74549000D03*
%TO.P,U4,19,GPIO2*%
%TO.N,/SPI_CS*%
X219456000Y-74549000D03*
%TO.P,U4,20,GPIO4*%
%TO.N,/MCU_POT*%
X216916000Y-74549000D03*
%TO.P,U4,21,GPIO16*%
%TO.N,unconnected-(U4-GPIO16-Pad21)*%
X214376000Y-74549000D03*
%TO.P,U4,22,GPIO17*%
%TO.N,unconnected-(U4-GPIO17-Pad22)*%
X211836000Y-74549000D03*
%TO.P,U4,23,GPIO5*%
%TO.N,unconnected-(U4-GPIO5-Pad23)*%
X209296000Y-74549000D03*
%TO.P,U4,24,GPIO18*%
%TO.N,/SPI_CLK*%
X206756000Y-74549000D03*
%TO.P,U4,25,GPIO19*%
%TO.N,/SPI_MISO*%
X204216000Y-74549000D03*
%TO.P,U4,26,GPIO21*%
%TO.N,unconnected-(U4-GPIO21-Pad26)*%
X201676000Y-74549000D03*
%TO.P,U4,27,GPIO3*%
%TO.N,unconnected-(U4-GPIO3-Pad27)*%
X199136000Y-74549000D03*
%TO.P,U4,28,GPIO1*%
%TO.N,unconnected-(U4-GPIO1-Pad28)*%
X196596000Y-74549000D03*
%TO.P,U4,29,GPIO22*%
%TO.N,unconnected-(U4-GPIO22-Pad29)*%
X194056000Y-74549000D03*
%TO.P,U4,30,GPIO23*%
%TO.N,/SPI_MOSI*%
X191516000Y-74549000D03*
%TD*%
D11*
%TO.P,H4,1,1*%
%TO.N,GND*%
X238489540Y-55014187D03*
X239192484Y-53317131D03*
X239192484Y-56711243D03*
X240889540Y-52614187D03*
D12*
X240889540Y-55014187D03*
D11*
X240889540Y-57414187D03*
X242586596Y-53317131D03*
X242586596Y-56711243D03*
X243289540Y-55014187D03*
%TD*%
%TO.P,H3,1,1*%
%TO.N,GND*%
X169015540Y-99614187D03*
X169718484Y-97917131D03*
X169718484Y-101311243D03*
X171415540Y-97214187D03*
D12*
X171415540Y-99614187D03*
D11*
X171415540Y-102014187D03*
X173112596Y-97917131D03*
X173112596Y-101311243D03*
X173815540Y-99614187D03*
%TD*%
%TO.P,H2,1,1*%
%TO.N,GND*%
X162215540Y-55014187D03*
X162918484Y-53317131D03*
X162918484Y-56711243D03*
X164615540Y-52614187D03*
D12*
X164615540Y-55014187D03*
D11*
X164615540Y-57414187D03*
X166312596Y-53317131D03*
X166312596Y-56711243D03*
X167015540Y-55014187D03*
%TD*%
%TO.P,H1,1,1*%
%TO.N,GND*%
X238489540Y-99614187D03*
X239192484Y-97917131D03*
X239192484Y-101311243D03*
X240889540Y-97214187D03*
D12*
X240889540Y-99614187D03*
D11*
X240889540Y-102014187D03*
X242586596Y-97917131D03*
X242586596Y-101311243D03*
X243289540Y-99614187D03*
%TD*%
D13*
%TO.P,S1,1,A*%
%TO.N,GND*%
X148749000Y-60562000D03*
X153749000Y-60562000D03*
D14*
%TO.P,S1,2,B*%
%TO.N,Net-(Q1-D)*%
X148749000Y-55562000D03*
X153749000Y-55562000D03*
%TD*%
D15*
%TO.P,U3,1,EN*%
%TO.N,/DRIVER_EN*%
X181225500Y-91694000D03*
%TO.P,U3,2,SDI/MS0*%
%TO.N,/DRIVER_MOSI*%
X181225500Y-89154000D03*
%TO.P,U3,3,SCK/MS1*%
%TO.N,/DRIVER_SCK*%
X181225500Y-86614000D03*
%TO.P,U3,4,CS/MS2*%
%TO.N,/DRIVER_CS*%
X181225500Y-84074000D03*
%TO.P,U3,5,SDO/RST*%
%TO.N,/DRIVER_MISO*%
X181225500Y-81534000D03*
%TO.P,U3,6,SLEEP*%
%TO.N,/DRIVER_SLP*%
X181225500Y-78994000D03*
%TO.P,U3,7,STEP*%
%TO.N,/DRIVER_STEP*%
X181225500Y-76454000D03*
D16*
%TO.P,U3,8,DIR*%
%TO.N,/DRIVER_DIR*%
X181225500Y-73914000D03*
D15*
%TO.P,U3,9,GND*%
%TO.N,GND*%
X168525500Y-73914000D03*
%TO.P,U3,10,VCC_IO*%
%TO.N,DRV_5V*%
X168525500Y-76454000D03*
%TO.P,U3,11,A1*%
%TO.N,/MOT_A1*%
X168525500Y-78994000D03*
%TO.P,U3,12,A2*%
%TO.N,/MOT_A2*%
X168525500Y-81534000D03*
%TO.P,U3,13,B2*%
%TO.N,/MOT_B2*%
X168525500Y-84074000D03*
%TO.P,U3,14,B1*%
%TO.N,/MOT_B1*%
X168525500Y-86614000D03*
%TO.P,U3,15,GND*%
%TO.N,GND*%
X168525500Y-89154000D03*
D16*
%TO.P,U3,16,VM*%
%TO.N,+24V*%
X168525500Y-91694000D03*
D15*
%TO.P,U3,17,DIAG0*%
%TO.N,unconnected-(U3-DIAG0-Pad17)*%
X178685500Y-91694000D03*
%TO.P,U3,18,NC*%
%TO.N,unconnected-(U3-NC-Pad18)*%
X177415500Y-90043000D03*
%TO.P,U3,19,DIAG1*%
%TO.N,/DRIVER_DIAG*%
X176145500Y-91694000D03*
%TD*%
D17*
%TO.P,J3,1,Pin_1*%
%TO.N,/SPI_MISO*%
X184414000Y-54737000D03*
D18*
%TO.P,J3,2,Pin_2*%
%TO.N,/SPI_CS*%
X186954000Y-54737000D03*
%TO.P,J3,3,Pin_3*%
%TO.N,/SPI_CLK*%
X189494000Y-54737000D03*
%TO.P,J3,4,Pin_4*%
%TO.N,/SPI_MOSI*%
X192034000Y-54737000D03*
%TD*%
D19*
%TO.P,C3,1*%
%TO.N,+24V*%
X174832000Y-56388000D03*
D20*
%TO.P,C3,2*%
%TO.N,GND*%
X179832000Y-56388000D03*
%TD*%
D21*
%TO.P,R2,1*%
%TO.N,/SPI_CS*%
X201925000Y-60696000D03*
D22*
%TO.P,R2,2*%
%TO.N,+3.3V*%
X201925000Y-53076000D03*
%TD*%
D20*
%TO.P,C2,1*%
%TO.N,DRV_5V*%
X165100000Y-77958000D03*
%TO.P,C2,2*%
%TO.N,GND*%
X165100000Y-75458000D03*
%TD*%
D23*
%TO.P,U1,1,IN*%
%TO.N,+24V*%
X145392000Y-93472000D03*
D24*
%TO.P,U1,2,GND*%
%TO.N,GND*%
X145392000Y-96012000D03*
%TO.P,U1,3,OUT*%
%TO.N,+5V*%
X145392000Y-98552000D03*
%TD*%
D13*
%TO.P,J4,1,Pin_1*%
%TO.N,/MOT_B1*%
X148749000Y-84088000D03*
X153749000Y-84088000D03*
D14*
%TO.P,J4,2,Pin_2*%
%TO.N,/MOT_B2*%
X148749000Y-79088000D03*
X153749000Y-79088000D03*
%TO.P,J4,3,Pin_3*%
%TO.N,/MOT_A2*%
X148749000Y-74088000D03*
X153749000Y-74088000D03*
%TO.P,J4,4,Pin_4*%
%TO.N,/MOT_A1*%
X148749000Y-69088000D03*
X153749000Y-69088000D03*
%TD*%
D21*
%TO.P,R5,1*%
%TO.N,/MCU_STEP*%
X211375000Y-60696000D03*
D22*
%TO.P,R5,2*%
%TO.N,GND*%
X211375000Y-53076000D03*
%TD*%
D23*
%TO.P,Q1,1,G*%
%TO.N,Net-(D1-A)*%
X160950000Y-64262000D03*
D24*
%TO.P,Q1,2,D*%
%TO.N,Net-(Q1-D)*%
X160950000Y-66802000D03*
%TO.P,Q1,3,S*%
%TO.N,+24V*%
X160950000Y-69342000D03*
%TD*%
D19*
%TO.P,U2,1*%
%TO.N,GND*%
X185547000Y-70993000D03*
D25*
%TO.P,U2,2*%
%TO.N,/MCU_STEP*%
X188087000Y-70993000D03*
%TO.P,U2,3*%
%TO.N,/DRIVER_STEP*%
X190627000Y-70993000D03*
%TO.P,U2,4*%
%TO.N,GND*%
X193167000Y-70993000D03*
%TO.P,U2,5*%
%TO.N,/MCU_EN*%
X195707000Y-70993000D03*
%TO.P,U2,6*%
%TO.N,/DRIVER_EN*%
X198247000Y-70993000D03*
%TO.P,U2,7,GND*%
%TO.N,GND*%
X200787000Y-70993000D03*
%TO.P,U2,8*%
%TO.N,/DRIVER_DIR*%
X200787000Y-63373000D03*
%TO.P,U2,9*%
%TO.N,/MCU_DIR*%
X198247000Y-63373000D03*
%TO.P,U2,10*%
%TO.N,GND*%
X195707000Y-63373000D03*
%TO.P,U2,11*%
%TO.N,unconnected-(U2-Pad11)*%
X193167000Y-63373000D03*
%TO.P,U2,12*%
%TO.N,unconnected-(U2-Pad12)*%
X190627000Y-63373000D03*
%TO.P,U2,13*%
%TO.N,GND*%
X188087000Y-63373000D03*
%TO.P,U2,14,VCC*%
%TO.N,DRV_5V*%
X185547000Y-63373000D03*
%TD*%
D20*
%TO.P,C1,1*%
%TO.N,DRV_5V*%
X182245000Y-63774000D03*
%TO.P,C1,2*%
%TO.N,GND*%
X182245000Y-66274000D03*
%TD*%
D21*
%TO.P,R6,1*%
%TO.N,/MCU_DIR*%
X214376000Y-70993000D03*
D22*
%TO.P,R6,2*%
%TO.N,GND*%
X214376000Y-63373000D03*
%TD*%
D20*
%TO.P,Murata-Ceramic-Capacitor-50v1-22uF1,2*%
%TO.N,GND*%
X147701000Y-102489000D03*
%TO.P,Murata-Ceramic-Capacitor-50v1-22uF1,1*%
%TO.N,+24V*%
X145201000Y-102489000D03*
%TD*%
D17*
%TO.P,J2,1,Pin_1*%
%TO.N,/DRIVER_DIAG*%
X195707000Y-54732000D03*
D18*
%TO.P,J2,2,Pin_2*%
%TO.N,/MCU_STOP*%
X195707000Y-57272000D03*
%TD*%
D20*
%TO.P,Murata-Ceramic-Capacitor-50v1-22uF2,1*%
%TO.N,+5V*%
X145181000Y-89408000D03*
%TO.P,Murata-Ceramic-Capacitor-50v1-22uF2,2*%
%TO.N,GND*%
X147681000Y-89408000D03*
%TD*%
D21*
%TO.P,R1,1*%
%TO.N,Net-(D1-A)*%
X159512000Y-60071000D03*
D22*
%TO.P,R1,2*%
%TO.N,GND*%
X159512000Y-52451000D03*
%TD*%
D21*
%TO.P,R3,1*%
%TO.N,/DRIVER_CS*%
X205075000Y-60696000D03*
D22*
%TO.P,R3,2*%
%TO.N,+5V*%
X205075000Y-53076000D03*
%TD*%
D26*
%TO.P,D1,1,K*%
%TO.N,+24V*%
X170053000Y-60071000D03*
D27*
%TO.P,D1,2,A*%
%TO.N,Net-(D1-A)*%
X170053000Y-52451000D03*
%TD*%
D21*
%TO.P,R4,1*%
%TO.N,/MCU_EN*%
X208225000Y-60696000D03*
D22*
%TO.P,R4,2*%
%TO.N,+3.3V*%
X208225000Y-53076000D03*
%TD*%
D21*
%TO.P,L1,1,1*%
%TO.N,+5V*%
X176911000Y-102362000D03*
D22*
%TO.P,L1,2,2*%
%TO.N,DRV_5V*%
X176911000Y-94742000D03*
%TD*%
D28*
%TO.P,Q2,1,S*%
%TO.N,/SPI_CS*%
X206883000Y-68199000D03*
D29*
%TO.P,Q2,2,G*%
%TO.N,+3.3V*%
X206883000Y-66929000D03*
%TO.P,Q2,3,D*%
%TO.N,/DRIVER_CS*%
X206883000Y-65659000D03*
%TD*%
D30*
%TO.P,RV1,1,1*%
%TO.N,+3.3V*%
X162433000Y-82413000D03*
%TO.P,RV1,2,2*%
%TO.N,/MCU_POT*%
X162433000Y-84953000D03*
%TO.P,RV1,3,3*%
%TO.N,GND*%
X162433000Y-87493000D03*
%TD*%
D17*
%TO.P,J1,1,Pin_1*%
%TO.N,/DRIVER_SLP*%
X184404000Y-59944000D03*
D18*
%TO.P,J1,2,Pin_2*%
%TO.N,/DRIVER_MISO*%
X184404000Y-57404000D03*
%TO.P,J1,3,Pin_3*%
%TO.N,DRV_5V*%
X186944000Y-59944000D03*
%TO.P,J1,4,Pin_4*%
%TO.N,/DRIVER_CS*%
X186944000Y-57404000D03*
%TO.P,J1,5,Pin_5*%
%TO.N,DRV_5V*%
X189484000Y-59944000D03*
%TO.P,J1,6,Pin_6*%
%TO.N,/DRIVER_SCK*%
X189484000Y-57404000D03*
%TO.P,J1,7,Pin_7*%
%TO.N,DRV_5V*%
X192024000Y-59944000D03*
%TO.P,J1,8,Pin_8*%
%TO.N,/DRIVER_MOSI*%
X192024000Y-57404000D03*
%TD*%
D31*
%TO.N,/SPI_MOSI*%
X194056258Y-56778827D03*
X194236788Y-59214854D03*
X193294000Y-67712625D03*
%TO.N,/MCU_DIR*%
X200025000Y-61722000D03*
%TO.N,/MCU_STEP*%
X209677000Y-66167000D03*
X202847750Y-79629000D03*
%TO.N,/SPI_CLK*%
X208153000Y-63754000D03*
%TO.N,/SPI_MISO*%
X198628000Y-69215000D03*
%TO.N,/MCU_EN*%
X204724000Y-70485000D03*
%TO.N,+3.3V*%
X171831000Y-77978000D03*
%TD*%
D32*
%TO.N,/SPI_MOSI*%
X194236788Y-56959357D02*
X194056258Y-56778827D01*
X194236788Y-59214854D02*
X194236788Y-56959357D01*
D33*
%TO.N,/DRIVER_DIAG*%
X194540887Y-60071000D02*
X196861625Y-57750262D01*
X181636110Y-67378625D02*
X185643551Y-67378625D01*
X196861625Y-55886625D02*
X195707000Y-54732000D01*
X192502262Y-61098625D02*
X193529887Y-60071000D01*
X189522375Y-63499801D02*
X189522375Y-61769262D01*
X185643551Y-67378625D02*
X189522375Y-63499801D01*
X176145500Y-83076858D02*
X171276375Y-78207733D01*
X193529887Y-60071000D02*
X194540887Y-60071000D01*
X196861625Y-57750262D02*
X196861625Y-55886625D01*
X189522375Y-61769262D02*
X190869375Y-60422262D01*
X171276375Y-77738360D02*
X181636110Y-67378625D01*
X171276375Y-78207733D02*
X171276375Y-77738360D01*
X190869375Y-60422262D02*
X191545738Y-61098625D01*
X191545738Y-61098625D02*
X192502262Y-61098625D01*
X176145500Y-91694000D02*
X176145500Y-83076858D01*
D32*
%TO.N,/DRIVER_CS*%
X205075000Y-60696000D02*
X197981000Y-53602000D01*
X197981000Y-53602000D02*
X194577000Y-53602000D01*
X194577000Y-53602000D02*
X194577000Y-55740000D01*
X194577000Y-55740000D02*
X194043000Y-56274000D01*
X194043000Y-56274000D02*
X188074000Y-56274000D01*
X188074000Y-56274000D02*
X186944000Y-57404000D01*
%TO.N,/SPI_MOSI*%
X191516000Y-74549000D02*
X191707000Y-74358000D01*
X191707000Y-74358000D02*
X191707000Y-69299625D01*
X191707000Y-69299625D02*
X193294000Y-67712625D01*
%TO.N,/MCU_DIR*%
X200025000Y-61722000D02*
X199898000Y-61722000D01*
X199898000Y-61722000D02*
X198247000Y-63373000D01*
%TO.N,/SPI_CS*%
X186954000Y-54737000D02*
X188519000Y-53172000D01*
X188519000Y-53172000D02*
X198936930Y-53172000D01*
X198936930Y-53172000D02*
X206055000Y-60290070D01*
X206055000Y-61153000D02*
X205532000Y-61676000D01*
X206055000Y-60290070D02*
X206055000Y-61153000D01*
X205532000Y-61676000D02*
X202905000Y-61676000D01*
X202905000Y-61676000D02*
X201925000Y-60696000D01*
%TO.N,/MCU_STEP*%
X209677000Y-72236112D02*
X208254000Y-73659112D01*
X203454000Y-79629000D02*
X202847750Y-79629000D01*
X209677000Y-66167000D02*
X209677000Y-72236112D01*
X208254000Y-73659112D02*
X208254000Y-74829000D01*
X208254000Y-74829000D02*
X203454000Y-79629000D01*
%TO.N,/SPI_CLK*%
X207913000Y-63994000D02*
X208153000Y-63754000D01*
X207913000Y-73392000D02*
X207913000Y-63994000D01*
X206756000Y-74549000D02*
X207913000Y-73392000D01*
%TO.N,/SPI_MISO*%
X198628000Y-69215000D02*
X204168178Y-69215000D01*
X205229000Y-70275822D02*
X205229000Y-73536000D01*
X204168178Y-69215000D02*
X205229000Y-70275822D01*
X205229000Y-73536000D02*
X204216000Y-74549000D01*
D33*
%TO.N,/MCU_EN*%
X204724000Y-70485000D02*
X203111375Y-72097625D01*
X203111375Y-72097625D02*
X196811625Y-72097625D01*
X196811625Y-72097625D02*
X195707000Y-70993000D01*
%TO.N,/MCU_POT*%
X162433000Y-84953000D02*
X162790625Y-85310625D01*
X162790625Y-85310625D02*
X169037727Y-85310625D01*
X202208871Y-51308000D02*
X203200375Y-52299504D01*
X169037727Y-85310625D02*
X169762125Y-84586227D01*
X203200375Y-52299504D02*
X203200375Y-53852496D01*
X169762125Y-84586227D02*
X169762125Y-80955023D01*
X184882262Y-58558625D02*
X185789375Y-57651512D01*
X169762125Y-80955023D02*
X169037727Y-80230625D01*
X169037727Y-80230625D02*
X166725551Y-80230625D01*
X166725551Y-80230625D02*
X165557551Y-79062625D01*
X165557551Y-79062625D02*
X164642449Y-79062625D01*
X163995375Y-78415551D02*
X163995375Y-75000449D01*
X164642449Y-79062625D02*
X163995375Y-78415551D01*
X163995375Y-75000449D02*
X180437199Y-58558625D01*
X185789375Y-57651512D02*
X185789375Y-54268738D01*
X180437199Y-58558625D02*
X184882262Y-58558625D01*
X216916000Y-64135000D02*
X216916000Y-74549000D01*
X185789375Y-54268738D02*
X188750113Y-51308000D01*
X188750113Y-51308000D02*
X202208871Y-51308000D01*
X203200375Y-53852496D02*
X204298504Y-54950625D01*
X204298504Y-54950625D02*
X207731625Y-54950625D01*
X207731625Y-54950625D02*
X216916000Y-64135000D01*
%TO.N,/DRIVER_DIR*%
X187655750Y-66675000D02*
X198247000Y-66675000D01*
X181225500Y-73105250D02*
X187655750Y-66675000D01*
X198501000Y-66421000D02*
X198501000Y-65659000D01*
X181225500Y-73914000D02*
X181225500Y-73105250D01*
X198247000Y-66675000D02*
X198501000Y-66421000D01*
X198501000Y-65659000D02*
X200787000Y-63373000D01*
%TO.N,/DRIVER_STEP*%
X181225500Y-76454000D02*
X184021708Y-73657792D01*
X184021708Y-73657792D02*
X187962208Y-73657792D01*
X187962208Y-73657792D02*
X190627000Y-70993000D01*
D34*
%TO.N,+3.3V*%
X171831000Y-77978000D02*
X174244000Y-80391000D01*
X174244000Y-80391000D02*
X221234000Y-80391000D01*
X221234000Y-80391000D02*
X227076000Y-74549000D01*
D33*
%TO.N,/MCU_EN*%
X212379625Y-61112130D02*
X211791130Y-61700625D01*
X209318892Y-61700625D02*
X202947517Y-68072000D01*
X212379625Y-60279870D02*
X212379625Y-61112130D01*
X202947517Y-68072000D02*
X196469000Y-68072000D01*
X211791130Y-61700625D02*
X209318892Y-61700625D01*
X211791130Y-59691375D02*
X212379625Y-60279870D01*
X209229625Y-59691375D02*
X211791130Y-59691375D01*
X208225000Y-60696000D02*
X209229625Y-59691375D01*
X196469000Y-68072000D02*
X195707000Y-68834000D01*
X195707000Y-68834000D02*
X195707000Y-70993000D01*
%TO.N,/MCU_STEP*%
X203158755Y-67183000D02*
X190500000Y-67183000D01*
X209645755Y-60696000D02*
X203158755Y-67183000D01*
X211375000Y-60696000D02*
X209645755Y-60696000D01*
X190500000Y-67183000D02*
X188087000Y-69596000D01*
X188087000Y-69596000D02*
X188087000Y-70993000D01*
D35*
%TO.N,+24V*%
X174832000Y-56388000D02*
X173736000Y-56388000D01*
X173736000Y-56388000D02*
X170053000Y-60071000D01*
D36*
%TO.N,DRV_5V*%
X182245000Y-63774000D02*
X180060000Y-65959000D01*
X180060000Y-65959000D02*
X180060000Y-67816823D01*
X180060000Y-67816823D02*
X171422823Y-76454000D01*
X171422823Y-76454000D02*
X168525500Y-76454000D01*
X165100000Y-77958000D02*
X165899999Y-77158001D01*
X165899999Y-77158001D02*
X168898503Y-77158001D01*
X168898503Y-77158001D02*
X174750293Y-83009791D01*
X174750293Y-83009791D02*
X174750293Y-92581293D01*
X174750293Y-92581293D02*
X176911000Y-94742000D01*
%TO.N,+5V*%
X145181000Y-89408000D02*
X145181000Y-88276630D01*
X166714000Y-93562000D02*
X168066187Y-94914187D01*
X145181000Y-88276630D02*
X146349630Y-87108000D01*
X153728440Y-87108000D02*
X160182440Y-93562000D01*
X146349630Y-87108000D02*
X153728440Y-87108000D01*
X160182440Y-93562000D02*
X166714000Y-93562000D01*
X168066187Y-94914187D02*
X173362344Y-94914187D01*
X173362344Y-94914187D02*
X176911000Y-98462843D01*
X176911000Y-98462843D02*
X176911000Y-102362000D01*
X145392000Y-98552000D02*
X146367859Y-98552000D01*
X146367859Y-98552000D02*
X149981000Y-94938859D01*
X149981000Y-94938859D02*
X149981000Y-88455308D01*
X149981000Y-88455308D02*
X148633692Y-87108000D01*
X148633692Y-87108000D02*
X146349630Y-87108000D01*
D35*
%TO.N,/MOT_B2*%
X168525500Y-84074000D02*
X165194500Y-80743000D01*
X160684000Y-80743000D02*
X159639000Y-81788000D01*
X156449000Y-81788000D02*
X153749000Y-79088000D01*
X165194500Y-80743000D02*
X160684000Y-80743000D01*
X159639000Y-81788000D02*
X156449000Y-81788000D01*
%TO.N,/MOT_B1*%
X168525500Y-86614000D02*
X165976500Y-89163000D01*
X158824000Y-89163000D02*
X153749000Y-84088000D01*
X165976500Y-89163000D02*
X158824000Y-89163000D01*
%TD*%
M02*
